<?xml version="1.0" encoding="UTF-8" standalone="no"?>
<svg width="20px" height="20px" viewBox="0 0 20 20" version="1.1" xmlns="http://www.w3.org/2000/svg" xmlns:xlink="http://www.w3.org/1999/xlink">
    <!-- Generator: Sketch 43.1 (39012) - http://www.bohemiancoding.com/sketch -->
    <title>trade_icon_over</title>
    <desc>Created with Sketch.</desc>
    <defs></defs>
    <g id="export" stroke="none" stroke-width="1" fill="none" fill-rule="evenodd">
        <g id="trade_icon_over" fill-rule="nonzero">
            <path d="M12.6962373,4.67856014 L5.90875816,4.67856014 C3.23095918,4.67856014 1.05987364,6.84932757 1.05987364,9.52704499 L1.05987364,10.9770479 C1.05987364,11.2473311 1.27500898,11.4664389 1.54462879,11.4664389 L2.99936092,11.4664389 C3.26708379,11.4664389 3.48411606,11.2514798 3.48411606,10.9770479 L3.48411606,9.52704499 C3.48411606,8.18827922 4.56975179,7.10280256 5.90875816,7.10280256 L12.6962373,7.10280256 L12.6962373,8.88747099 C12.6962373,9.07568912 12.7003613,9.80879211 12.7003613,9.80879211 C12.7003613,9.80879211 13.1354435,9.40163901 13.2587316,9.28540001 L16.4805162,6.24782432 C16.6851266,6.05491274 16.6851266,5.64487787 16.4805162,5.45196629 L13.2587316,2.41439059 C13.1282078,2.29132966 12.7003613,1.88540963 12.7003613,1.88540963 C12.7003613,1.88540963 12.6962373,2.63604218 12.6962373,2.81231961 L12.6962373,4.67856014 Z" id="Combined-Shape-Copy-12" fill="#2E793A"></path>
            <path d="M15.0023896,11.6473629 L8.21491051,11.6473629 C5.53711152,11.6473629 3.36602598,13.8181303 3.36602598,16.4958478 L3.36602598,17.9458507 C3.36602598,18.2161339 3.58116133,18.4352417 3.85078113,18.4352417 L5.30551326,18.4352417 C5.57323613,18.4352417 5.79026841,18.2202826 5.79026841,17.9458507 L5.79026841,16.4958478 C5.79026841,15.157082 6.87590413,14.0716053 8.21491051,14.0716053 L15.0023896,14.0716053 L15.0023896,15.8562738 C15.0023896,16.0251052 15.0023896,16.7671325 15.0023896,16.7671325 C15.0023896,16.7671325 15.4298482,16.3815177 15.564884,16.2542028 L18.7866686,13.2166271 C18.991279,13.0237155 18.991279,12.6136806 18.7866686,12.4207691 L15.564884,9.38319337 C15.3939141,9.22199891 15.0023896,8.84873649 15.0023896,8.84873649 C15.0023896,8.84873649 15.0023896,9.67159149 15.0023896,9.78112238 L15.0023896,11.6473629 Z" id="Combined-Shape-Copy-13" fill="#91D79C" transform="translate(11.153076, 13.641989) rotate(-180.000000) translate(-11.153076, -13.641989) "></path>
        </g>
    </g>
</svg>